<svg xmlns="http://www.w3.org/2000/svg" width="72" height="72"><defs><linearGradient id="a" x1="0%" x2="99.58%" y1="0%" y2="99.58%"><stop offset="0%" stop-color="#33D35E"/><stop offset="100%" stop-color="#2AB6D9"/></linearGradient></defs><g fill="none" fill-rule="evenodd"><circle cx="36" cy="36" r="36" fill="url(#a)"/><path fill="#FFF" fill-rule="nonzero" d="M36 16a4.522 4.522 0 014.516 4.516 4.514 4.514 0 01-1.951 3.713c2.647 1.031 4.532 3.601 4.532 6.61v3.226h-6.452v.645c0 .356.29.645.645.645h1.29c1.068 0 1.936.868 1.936 1.935v1.29a1.938 1.938 0 01-1.935 1.936h-1.153l.69.69-.964 1.59c.047.1.081.2.124.3h6.287a5.146 5.146 0 01-1.759-3.87 5.167 5.167 0 015.162-5.161 5.167 5.167 0 015.161 5.16 5.154 5.154 0 01-1.904 4c3.283.621 5.775 3.507 5.775 6.969V56H41.161v-7.42a.969.969 0 00-.967-.967h-.968v1.15l-1.802.443c-.08.215-.17.43-.269.642l.963 1.59-3.453 3.454-1.59-.963c-.214.1-.428.19-.642.268L31.99 56h-4.883l-.442-1.802a8.519 8.519 0 01-.642-.268l-1.59.962-3.454-3.453.963-1.59a8.632 8.632 0 01-.268-.642l-1.803-.443V43.88l1.803-.443c.079-.214.169-.428.268-.642l-.963-1.59.69-.69h-1.153a1.938 1.938 0 01-1.935-1.935v-1.29c0-1.068.868-1.936 1.935-1.936h1.29a.645.645 0 00.646-.645v-.645H16v-3.226c0-3.009 1.885-5.579 4.532-6.61a4.514 4.514 0 01-1.951-3.713A4.522 4.522 0 0123.097 16a4.522 4.522 0 014.516 4.516 4.514 4.514 0 01-1.952 3.713 7.126 7.126 0 013.887 3.67 7.128 7.128 0 013.887-3.67 4.514 4.514 0 01-1.951-3.713A4.522 4.522 0 0136 16zm12.903 28.387H31.806a.969.969 0 000 1.936h8.388a2.26 2.26 0 012.258 2.258v6.129h9.032v-7.097h1.29v7.097h1.936v-4.516a5.813 5.813 0 00-5.807-5.807zm-17.925-6.452h-2.86l-.37 1.514-.347.11a7.029 7.029 0 00-1.113.465l-.32.167-1.339-.81-2.021 2.022.81 1.338-.168.32a7.08 7.08 0 00-.465 1.114l-.11.346-1.514.372v2.86l1.514.37.109.347c.117.368.273.743.466 1.113l.167.32-.81 1.339 2.021 2.021 1.338-.81.322.168c.37.192.744.349 1.114.466l.344.11.373 1.513h2.86l.37-1.514.346-.109a7.029 7.029 0 001.113-.466l.322-.167 1.338.81 2.021-2.021-.81-1.338.167-.322c.193-.37.35-.744.467-1.114l.11-.344 1.512-.373v-.14H35.21a5.813 5.813 0 01-5.662 4.517 5.813 5.813 0 01-5.806-5.806 5.813 5.813 0 015.806-5.807c1.936 0 3.74.985 4.813 2.581h1.503l-.017-.034-.167-.322.81-1.338-2.022-2.021-1.338.81-.321-.167a7.08 7.08 0 00-1.113-.466l-.346-.11-.372-1.514zm-1.43 3.871a4.522 4.522 0 00-4.516 4.517 4.522 4.522 0 004.516 4.516 4.521 4.521 0 004.327-3.226h-1.371a3.225 3.225 0 11-1.71-4.265 2.234 2.234 0 011.012-.251h.898a4.533 4.533 0 00-3.156-1.29zm0 2.581a1.938 1.938 0 00-1.935 1.936c0 1.067.868 1.935 1.935 1.935.623 0 1.184-.3 1.542-.773a2.253 2.253 0 01-1.542-2.13c0-.337.08-.653.212-.94-.071-.009-.14-.028-.212-.028zm17.42-9.032a3.875 3.875 0 00-3.871 3.87 3.875 3.875 0 003.87 3.872 3.875 3.875 0 003.872-3.871 3.875 3.875 0 00-3.871-3.871zm-11.613-1.29H23.742v.645a1.938 1.938 0 01-1.936 1.935h-1.29a.645.645 0 00-.645.645v1.29c0 .357.289.646.645.646h2.443l1.473-1.472 1.59.962c.213-.1.428-.189.642-.268l.443-1.803h4.883l.443 1.803c.214.08.428.169.642.268l1.59-.962 1.472 1.472h2.444a.645.645 0 00.645-.645v-1.29a.645.645 0 00-.645-.646h-1.29a1.938 1.938 0 01-1.936-1.935v-.645zm-12.258-9.033a5.813 5.813 0 00-5.807 5.807v1.935h1.936v-5.161h1.29v5.161h5.161v-5.161h1.29v5.161h1.936V30.84a5.813 5.813 0 00-5.806-5.807zm12.903 0a5.813 5.813 0 00-5.806 5.807v1.935h1.935v-5.161h1.29v5.161h5.162v-5.161h1.29v5.161h1.935V30.84A5.813 5.813 0 0036 25.032zm15.484-1.29A4.522 4.522 0 0156 28.258a4.522 4.522 0 01-4.516 4.516h-7.097v-4.516a4.522 4.522 0 014.516-4.516zm0 1.29h-2.58a3.23 3.23 0 00-3.227 3.226v3.226h5.807a3.23 3.23 0 003.226-3.226 3.23 3.23 0 00-3.226-3.226zm-3.226 3.871v1.29h-1.29v-1.29h1.29zm2.58 0v1.29h-1.29v-1.29h1.29zm2.581 0v1.29h-1.29v-1.29h1.29zm0-2.58v1.29h-6.451v-1.29h6.451zM23.097 17.29a3.23 3.23 0 00-3.226 3.226 3.23 3.23 0 003.226 3.226 3.23 3.23 0 003.226-3.226 3.23 3.23 0 00-3.226-3.226zm12.903 0a3.23 3.23 0 00-3.226 3.226A3.23 3.23 0 0036 23.742a3.23 3.23 0 003.226-3.226A3.23 3.23 0 0036 17.29z"/></g></svg>