<svg xmlns="http://www.w3.org/2000/svg" width="72" height="72"><defs><linearGradient id="a" x1="0%" x2="99.58%" y1="0%" y2="99.58%"><stop offset="0%" stop-color="#33D35E"/><stop offset="100%" stop-color="#2AB6D9"/></linearGradient></defs><g fill="none" fill-rule="evenodd"><circle cx="36" cy="36" r="36" fill="url(#a)"/><path fill="#FFF" fill-rule="nonzero" d="M26.118 28.339a.586.586 0 111.135.292c-.04.156-.06.317-.06.48V42.89c0 1.058.86 1.919 1.918 1.919H42.89c.163 0 .324-.02.48-.06a.586.586 0 11.292 1.134 3.102 3.102 0 01-.772.098h-1.293v1.767c0 .345.134.67.379.914l3.855 3.855a1.84 1.84 0 012.116.346 1.84 1.84 0 010 2.6c-.358.358-.829.537-1.3.537-.47 0-.941-.18-1.3-.538a1.84 1.84 0 01-.345-2.116l-3.855-3.855a2.448 2.448 0 01-.722-1.743V45.98h-1.333v2.545a.586.586 0 01-1.172 0V45.98h-1.333v9.434a.586.586 0 01-1.172 0V45.98h-1.333v2.545a.586.586 0 01-1.172 0V45.98h-1.333v5.187a1.841 1.841 0 011.253 1.742 1.84 1.84 0 01-1.839 1.838 1.84 1.84 0 01-1.838-1.838c0-.809.525-1.497 1.252-1.742V45.98h-1.293a3.094 3.094 0 01-3.09-3.091v-1.293h-1.768c-.345 0-.67.134-.914.379l-3.854 3.853c.125.251.192.53.192.818 0 .492-.191.953-.538 1.3a1.827 1.827 0 01-1.3.539c-.492 0-.953-.191-1.3-.539a1.827 1.827 0 01-.539-1.3c0-.49.191-.952.538-1.3a1.827 1.827 0 011.3-.538c.29 0 .567.067.819.192l3.853-3.854a2.448 2.448 0 011.743-.722h1.767v-1.333h-2.545a.586.586 0 010-1.172h2.545v-1.333h-9.434a.586.586 0 010-1.172h9.434v-1.333h-2.545a.586.586 0 010-1.172h2.545v-1.333h-5.187a1.841 1.841 0 01-1.742 1.252 1.84 1.84 0 01-1.838-1.838 1.84 1.84 0 011.838-1.839c.809 0 1.497.526 1.742 1.253h5.187v-1.293c0-.261.033-.521.098-.772zm20.528 25.156a.665.665 0 00-.47 1.138.667.667 0 10.47-1.138zM30.99 52.243a.667.667 0 10.002 1.334.667.667 0 00-.002-1.334zM17.838 45.98a.662.662 0 00-.47.195.662.662 0 00-.196.471.662.662 0 00.667.667.662.662 0 00.667-.667.662.662 0 00-.196-.47.662.662 0 00-.472-.196zM36 16c.324 0 .586.262.586.586v9.434h1.333v-2.545a.586.586 0 011.172 0v2.545h1.333v-5.187a1.841 1.841 0 01-1.252-1.742 1.84 1.84 0 011.838-1.838 1.84 1.84 0 011.839 1.838c0 .809-.526 1.497-1.253 1.742v5.187h1.293a3.094 3.094 0 013.09 3.091v1.293h1.768c.345 0 .67-.135.914-.379l3.854-3.853a1.83 1.83 0 01-.192-.818c0-.492.191-.953.539-1.3a1.827 1.827 0 011.3-.539c.49 0 .952.191 1.3.539.347.347.538.809.538 1.3 0 .49-.191.952-.538 1.3a1.827 1.827 0 01-1.3.538 1.83 1.83 0 01-.819-.192l-3.853 3.854a2.448 2.448 0 01-1.743.722H45.98v1.333h2.545a.586.586 0 010 1.172H45.98v1.333h9.434a.586.586 0 110 1.172H45.98v1.333h2.545a.586.586 0 010 1.172H45.98v1.333h5.187a1.841 1.841 0 011.742-1.252 1.84 1.84 0 011.838 1.838 1.84 1.84 0 01-1.838 1.838 1.841 1.841 0 01-1.742-1.252H45.98v1.293a3.1 3.1 0 01-.097.771.586.586 0 11-1.135-.291c.04-.156.06-.317.06-.48V29.11c0-1.058-.861-1.919-1.92-1.919H29.112c-.163 0-.324.02-.48.06a.586.586 0 11-.292-1.134c.251-.065.51-.098.772-.098h1.293v-1.767c0-.345-.134-.67-.379-.914l-3.855-3.855a1.841 1.841 0 01-2.116-.345 1.84 1.84 0 010-2.6 1.84 1.84 0 012.6 0 1.84 1.84 0 01.345 2.116l3.855 3.855c.466.466.722 1.085.722 1.743v1.767h1.333v-2.545a.586.586 0 011.172 0v2.545h1.333v-9.434c0-.324.262-.586.586-.586zm1.761 13.151c1.295 0 2.348.966 2.348 2.152a2 2 0 01-.058.472c1.255.345 2.171 1.406 2.171 2.66 0 .702-.3 1.372-.815 1.878.516.507.815 1.177.815 1.879 0 .955-.544 1.84-1.414 2.344-.087 1.288-1.262 2.313-2.694 2.313A2.796 2.796 0 0136 41.914a2.796 2.796 0 01-2.114.935c-1.488 0-2.7-1.106-2.7-2.465-.876-.579-1.408-1.509-1.408-2.505 0-.655.226-1.27.617-1.777a2.573 2.573 0 01-.617-1.668c0-1.253.916-2.314 2.171-2.66a2 2 0 01-.058-.47c0-1.187 1.053-2.153 2.348-2.153.7 0 1.33.284 1.761.732a2.437 2.437 0 011.761-.732zm0 1.172c-.648 0-1.175.44-1.175.98a.586.586 0 01-1.172 0c0-.54-.527-.98-1.175-.98-.649 0-1.176.44-1.176.98a.87.87 0 00.215.562v.001l.029.037.008.01.013.022a.586.586 0 01-.497.895l-.016-.001c-1.03.006-1.865.724-1.866 1.605 0 .319.112.625.32.886a3.57 3.57 0 011.075-.438.586.586 0 01.262 1.142c-.975.224-1.657.987-1.657 1.855 0 .481.216.942.586 1.292.1-.163.222-.315.362-.455a.586.586 0 11.826.831c-.235.234-.365.531-.365.837 0 .713.686 1.293 1.528 1.293.843 0 1.528-.58 1.528-1.293V39.13c0-.537-.401-1.025-.999-1.212a.586.586 0 01.351-1.118c.234.073.45.175.648.3v-3.254a.586.586 0 011.172 0v.749c.434-.274.96-.434 1.527-.434a.586.586 0 010 1.172c-.842 0-1.527.58-1.527 1.292v3.758c0 .713.685 1.293 1.527 1.293.843 0 1.528-.58 1.528-1.293 0-.538-.401-1.025-.999-1.213a.586.586 0 11.352-1.118 2.63 2.63 0 011.54 1.24c.324-.294.516-.688.516-1.101 0-.554-.337-1.063-.901-1.36a.586.586 0 010-1.037c.564-.298.901-.807.901-1.36 0-.882-.835-1.6-1.865-1.606h-.024a2.118 2.118 0 00-.819.164.586.586 0 11-.455-1.08c.306-.13.628-.21.962-.241a.824.824 0 00.088-.369c0-.54-.528-.98-1.176-.98zm15.148 10.02a.667.667 0 10.001 1.335.667.667 0 000-1.334zm-33.818-10.02a.667.667 0 10.001 1.335.667.667 0 00-.001-1.335zm35.07-5.636a.662.662 0 00-.47.195.662.662 0 00-.196.472.662.662 0 00.667.667c.178 0 .345-.07.47-.196a.662.662 0 00.196-.471.662.662 0 00-.195-.472.662.662 0 00-.471-.195zm-13.15-6.263a.667.667 0 100 1.335.667.667 0 000-1.335zm-15.657-1.252a.667.667 0 10.002 1.333.667.667 0 00-.002-1.333z"/></g></svg>